<svg xmlns="http://www.w3.org/2000/svg" viewBox="0 0 512 512">
    <g fill="#dc2626" fill-opacity="0.9">
        <path d="M-994.9 71.251c0 40.03-32.449 72.479-72.478 72.479-40.028 0-72.478-32.45-72.478-72.479 0-40.028 32.45-72.478 72.478-72.478 40.03 0 72.479 32.45 72.479 72.478z" transform="matrix(3.47607 0 0 3.47607 3966.073 9.559)"></path>
    </g>
    <g fill="#fcdf37" fill-opacity="1">
        <path d="M-3284.89-1057.092c2.665 1.087 4.641 4.86 4.641 9.349 0 4.49-2.305 8.262-4.97 9.348.977.014 1.61-.073 2.727-.296l-10.1 28.178c-.174-.015-.353-.05-.527-.066a21.462 21.462 0 0 0-1.844-.033c-8.179.118-15.4 4.652-19.223 11.455-1.078 1.866.624 3.984 2.6 4.641 1.392.463 2.462.81 3.786 1.25-3.463 2.962-5.63 7.356-5.63 12.28 0 8.948 7.247 16.227 16.196 16.227 8.949 0 16.196-7.279 16.196-16.228 0-1.202-.146-2.364-.395-3.49 3.077 1.024 5.888 1.955 9.315 3.095.316.106.637.174.955.198h.46c5.547-.002 15.658-.001 25.478 0v.197c0 8.95 7.247 16.228 16.196 16.228 8.948 0 16.195-7.279 16.195-16.228v-.197h3.588c2.134.003 3.868-1.682 3.983-3.786-.01-1.935-.032-3.918-.032-4.18 0-8.242-3.145-15.634-7.143-20.87l-35.781.033c.83 2.162 1.185 4.368 1.185 7.209 0 7.3-5.933 13.2-13.233 13.2-5.048 0-9.427-2.852-11.653-7.012-.19-.35-.368-.718-.526-1.086-.012-.025-.025-.04-.032-.066-.157-.37-.273-.766-.395-1.152-.128-.405-.274-.83-.363-1.25-.012-.029 0-.04 0-.066-.045-.224-.099-.464-.131-.69-.032-.21-.046-.415-.065-.627-.012-.052.012-.079 0-.131a13.615 13.615 0 0 1-.066-1.218s-.339-28.027-.593-35.979l7.472 4.28c.935.537 2.096.242 2.634-.692l.362-.625a1.917 1.917 0 0 0-.724-2.634l-8.13-4.707c1.474-1.34 2.414-2.74 2.6-4.016v-.033c.017-.113 0-.212 0-.329v-.23c0-.125.014-.234 0-.362-.344-2.32-3.079-5.082-7.176-6.979-2.662-1.232-5.451-1.911-7.703-1.91h-.132zm-4.757.626c-3.098 0-5.63 3.9-5.63 8.723s2.532 8.756 5.63 8.756c3.097 0 5.596-3.933 5.596-8.756s-2.499-8.723-5.596-8.723zm53.475 9.15c-1.135 0-2.074.907-2.074 2.042v15.636c0 1.134.94 2.073 2.074 2.073h22.153c1.135 0 2.041-.939 2.041-2.073v-15.636a2.031 2.031 0 0 0-2.04-2.041zm-11.093 24.491a4.322 4.322 0 0 0-4.345 4.345c0 .169.046.331.065.494h-.033c.015.128.049.298.065.428.136.997.509 1.913.954 2.831h36.308a4.324 4.324 0 0 0 2.173-3.753 4.322 4.322 0 0 0-4.345-4.345zm-49.969 33.609c4.55 0 8.262 3.68 8.262 8.23 0 4.55-3.712 8.262-8.262 8.262-4.55 0-8.23-3.713-8.23-8.263s3.68-8.23 8.23-8.23zm59.976 8.032h16.491v.197c0 4.55-3.712 8.263-8.262 8.263-4.55 0-8.23-3.713-8.23-8.263z" transform="translate(10592.001 3462.597) scale(3.17072)"></path>
    </g>
</svg>